<svg width="484" height="483" viewBox="0 0 484 483" fill="none" xmlns="http://www.w3.org/2000/svg">
<circle opacity="0.2" cx="241.978" cy="241.5" r="239.852" stroke="#386EF9" stroke-width="2.4727"/>
<circle cx="241.978" cy="241.5" r="220.894" fill="#506BF0"/>
<mask id="mask0_925_2670" style="mask-type:alpha" maskUnits="userSpaceOnUse" x="21" y="20" width="442" height="443">
<circle cx="241.978" cy="241.5" r="220.894" fill="#506BF0"/>
</mask>
<g mask="url(#mask0_925_2670)">
<path d="M339.728 251.955C330.729 250.012 321.629 248.575 312.469 247.652C304.55 246.825 296.113 246.263 287.157 245.986C278.922 246.192 271.15 246.698 263.798 247.454C258.141 248.04 252.73 248.77 247.565 249.643C189.716 259.37 160.509 285.844 133.495 304.05L136.326 364.164V364.231L198.997 340.876L209.976 463.016H415.437C398.836 400.246 368.274 300.819 339.728 251.955Z" fill="#DDE2FE"/>
<path d="M339.729 251.955C356.813 281.197 374.614 328.541 389.71 375.299L447.65 364.358C429.714 305.791 419.646 265.066 339.729 251.955Z" fill="#DDE2FE"/>
<path d="M389.71 375.299C399.846 406.682 408.762 437.8 415.445 463.008H473.607C463.685 426.008 456.408 392.911 447.669 364.37L389.71 375.299Z" fill="#FFBA9A"/>
<path d="M259.094 231.03C254.141 229.7 245.019 233.152 245.019 233.152C247.394 223.596 243.693 219.875 243.693 219.875C238.91 216.158 218.46 222.25 218.46 222.25C213.416 217.738 201.732 219.329 201.732 219.329C181.283 222.531 153.121 261.832 153.121 261.832L104.64 315.549C101.795 318.701 99.6511 322.421 98.3504 326.463C97.0498 330.505 96.6216 334.776 97.0942 338.996C97.5668 343.215 98.9295 347.287 101.092 350.941C103.255 354.595 106.168 357.748 109.64 360.193C113.055 362.599 116.935 364.265 121.031 365.085C125.127 365.906 129.35 365.862 133.428 364.957C137.506 364.052 141.351 362.305 144.715 359.829C148.079 357.353 150.89 354.202 152.966 350.578C166.032 327.773 184.989 296.5 201.451 276.158C215.475 273.236 234.796 260.759 247.537 249.635C257.974 240.543 263.98 232.344 259.094 231.03Z" fill="#FFBA9A"/>
<path d="M200.058 261.384C199.506 261.379 198.957 261.306 198.423 261.167C196.17 260.604 196.839 257.208 197.726 252.957C198.756 247.89 200.035 241.584 195.964 239.893C195.843 239.841 195.748 239.742 195.699 239.62C195.65 239.497 195.653 239.36 195.705 239.238C195.758 239.117 195.856 239.022 195.979 238.973C196.102 238.924 196.239 238.927 196.36 238.979C201.187 240.958 199.813 247.723 198.712 253.143C198.007 256.599 197.346 259.872 198.68 260.197C202.454 261.139 205.257 258.938 209.236 244.612C213.155 230.508 208.262 225.944 204.33 222.274C204.234 222.184 204.178 222.06 204.173 221.929C204.169 221.797 204.217 221.669 204.307 221.573C204.396 221.477 204.521 221.421 204.652 221.416C204.783 221.412 204.911 221.46 205.007 221.55C208.915 225.199 214.272 230.195 210.19 244.877C206.864 256.804 204.156 261.384 200.058 261.384Z" fill="#BF643A"/>
<path d="M214.288 259.651C211.021 259.651 207.533 252.47 207.125 251.603C207.069 251.484 207.062 251.348 207.107 251.225C207.151 251.101 207.242 251 207.361 250.944C207.479 250.888 207.616 250.881 207.739 250.925C207.863 250.969 207.964 251.061 208.02 251.179C209.521 254.346 212.629 259.164 214.608 258.617C219.589 257.192 220.943 230.745 219.838 225.762C219.824 225.698 219.822 225.633 219.834 225.569C219.845 225.504 219.868 225.443 219.903 225.388C219.938 225.333 219.983 225.286 220.036 225.248C220.089 225.211 220.149 225.184 220.213 225.17C220.276 225.156 220.342 225.154 220.406 225.165C220.47 225.176 220.531 225.2 220.586 225.234C220.641 225.269 220.689 225.314 220.726 225.367C220.764 225.42 220.79 225.48 220.804 225.544C221.715 229.641 221.137 257.798 214.866 259.587C214.677 259.634 214.482 259.655 214.288 259.651Z" fill="#BF643A"/>
<path d="M227.682 257.786H227.555C225.548 257.691 223.734 254.952 221.458 250.562C221.397 250.445 221.386 250.309 221.426 250.184C221.465 250.059 221.553 249.955 221.67 249.895C221.786 249.834 221.922 249.823 222.047 249.862C222.172 249.902 222.276 249.99 222.337 250.106C224.031 253.372 225.983 256.721 227.603 256.8C228.394 256.824 229.254 256.112 230.247 254.58C232.397 251.254 234.658 238.421 232.298 230.781C231.459 228.069 230.133 226.312 228.339 225.567C228.218 225.515 228.122 225.416 228.074 225.294C228.025 225.171 228.027 225.034 228.08 224.912C228.132 224.791 228.231 224.696 228.354 224.647C228.476 224.598 228.614 224.601 228.735 224.653C230.802 225.52 232.298 227.483 233.248 230.492C235.683 238.373 233.32 251.662 231.083 255.118C229.931 256.935 228.83 257.786 227.682 257.786Z" fill="#BF643A"/>
<path d="M237.453 251.892H237.295C232.635 251.599 232.579 247.455 232.579 247.415C232.579 247.284 232.631 247.158 232.724 247.065C232.817 246.972 232.943 246.92 233.074 246.92C233.14 246.916 233.205 246.926 233.267 246.949C233.329 246.972 233.385 247.008 233.431 247.055C233.478 247.101 233.515 247.157 233.538 247.218C233.562 247.28 233.572 247.345 233.569 247.411C233.569 247.546 233.64 250.669 237.358 250.902C240.026 251.077 241.769 243.888 243.032 238.631C243.554 236.466 244.045 234.419 244.56 232.974C244.604 232.85 244.695 232.749 244.814 232.693C244.933 232.636 245.069 232.629 245.193 232.673C245.317 232.717 245.418 232.809 245.475 232.928C245.531 233.046 245.538 233.183 245.494 233.307C244.995 234.7 244.508 236.723 243.994 238.849C242.513 244.98 240.85 251.892 237.453 251.892Z" fill="#BF643A"/>
<path opacity="0.6" d="M198.256 324.772C198.256 324.772 185.06 329.637 178.214 348.69L198.874 341.719L198.256 324.772Z" fill="#506BF0"/>
<path d="M290.111 305.011C288.402 305.013 286.695 304.863 285.012 304.564C275.292 302.818 267.516 296.156 264.218 286.751L265.619 286.26C267.082 290.575 269.678 294.417 273.137 297.383C276.596 300.35 280.789 302.331 285.277 303.119C297.729 305.356 311.408 298.765 322.743 285.041L323.888 285.991C313.693 298.282 301.637 305.011 290.111 305.011Z" fill="#506BF0"/>
<path d="M377.127 329.526L375.701 329.941L388.99 375.523L390.415 375.108L377.127 329.526Z" fill="#506BF0"/>
<path d="M198.366 329.293L196.889 329.443L209.526 454.048L211.004 453.898L198.366 329.293Z" fill="#506BF0"/>
<path d="M198.522 340.368L136.081 363.436L136.596 364.828L199.036 341.76L198.522 340.368Z" fill="#506BF0"/>
<path d="M353.587 342.847L313.156 346.355L314.098 357.2L354.528 353.692L353.587 342.847Z" fill="#506BF0"/>
<path d="M324.897 200.277V241.643C324.899 246.611 324.198 251.554 322.814 256.325C318.721 270.422 308.85 281.696 296.01 285.817C283.859 289.732 271.859 279.087 271.859 264.385V200.277H324.897Z" fill="#FFBA9A"/>
<path d="M308.787 211.954C296.743 236.572 280.657 246.714 271.843 248.804V202.668L308.787 211.954Z" fill="#BF643A"/>
<path d="M330.06 149.944L328.25 177.404L327.277 192.209C326.129 194.95 324.806 197.614 323.317 200.186C321.447 203.507 319.329 206.682 316.982 209.686C312.627 215.184 306.966 220.56 300.005 223.379C292.879 226.288 281.793 228.576 271.827 227.654C263.94 226.921 256.723 224.182 252.676 218.153C247.874 210.988 248.943 201.365 251.358 192.747C252.359 189.185 253.575 185.812 254.711 182.851C255.329 181.244 255.899 179.613 256.465 177.978C259.189 169.934 261.058 161.55 261.058 153.19V134.921L310.014 135.475L330.06 149.944Z" fill="#FFBA9A"/>
<path d="M247.997 105.074C246.049 140.954 264.364 160.315 318.099 154.302C313.59 170.991 314.896 183.017 319.489 192.407L338.683 195.467C338.683 195.467 363.163 171.268 355.93 143.179C348.696 115.089 328.112 112.86 309.211 114.254C290.309 115.647 274.702 123.152 247.997 105.074Z" fill="#013D55"/>
<path d="M286.971 182.487C286.338 184.49 286.971 186.477 288.389 186.924C289.806 187.372 291.469 186.109 292.099 184.11C292.728 182.111 292.099 180.12 290.681 179.672C289.264 179.225 287.605 180.488 286.971 182.487Z" fill="#013D55"/>
<path d="M271.867 195.625C271.793 195.626 271.72 195.613 271.649 195.59C268.205 194.529 265.129 193.25 265.315 189.312C265.449 186.79 267.124 185.844 269.06 184.747C270.705 183.892 272.223 182.814 273.574 181.545C273.716 181.408 273.907 181.333 274.104 181.337C274.302 181.34 274.49 181.422 274.627 181.565C274.764 181.707 274.839 181.898 274.835 182.095C274.831 182.293 274.749 182.481 274.607 182.618C273.163 183.968 271.543 185.119 269.793 186.038C267.777 187.178 266.886 187.752 266.799 189.387C266.661 192.031 268.383 193.037 272.065 194.173C272.233 194.227 272.377 194.339 272.47 194.489C272.563 194.639 272.6 194.817 272.574 194.992C272.548 195.166 272.46 195.326 272.327 195.442C272.194 195.558 272.024 195.623 271.847 195.625H271.867Z" fill="#013D55"/>
<path d="M274.274 206.088C271.051 206.088 267.939 204.936 264.883 202.636C264.805 202.577 264.739 202.504 264.689 202.42C264.64 202.335 264.607 202.242 264.594 202.146C264.58 202.049 264.586 201.951 264.61 201.856C264.635 201.762 264.677 201.673 264.736 201.595C264.795 201.517 264.868 201.451 264.953 201.402C265.037 201.352 265.13 201.32 265.226 201.306C265.323 201.292 265.422 201.298 265.516 201.322C265.611 201.347 265.699 201.39 265.777 201.448C271.396 205.68 277.034 205.664 283.511 201.389C283.592 201.328 283.685 201.284 283.784 201.26C283.882 201.236 283.985 201.232 284.085 201.249C284.186 201.266 284.281 201.304 284.366 201.359C284.452 201.415 284.524 201.487 284.58 201.572C284.637 201.657 284.675 201.752 284.692 201.852C284.71 201.953 284.707 202.055 284.684 202.154C284.661 202.253 284.617 202.346 284.556 202.428C284.495 202.509 284.419 202.577 284.33 202.628C280.823 204.936 277.485 206.088 274.274 206.088Z" fill="#013D55"/>
<path d="M288.329 168.941C286.405 171.558 288.836 172.9 294.423 175.892C298.584 178.109 301.819 179.49 302.63 178.267C303.442 177.044 300.896 173.913 296.949 171.36C293.001 168.806 290.048 166.605 288.329 168.941Z" fill="#013D55"/>
<path d="M277.576 165.109C277.536 168.359 274.773 167.983 268.521 166.993C263.869 166.257 260.452 165.41 260.555 163.933C260.658 162.457 264.55 161.515 269.265 161.839C273.981 162.164 277.608 162.211 277.576 165.109Z" fill="#013D55"/>
<path d="M265.14 173.644C264.51 175.647 265.14 177.63 266.561 178.077C267.983 178.524 269.638 177.285 270.271 175.263C270.905 173.24 270.271 171.276 268.85 170.829C267.428 170.382 265.773 171.641 265.14 173.644Z" fill="#013D55"/>
<path d="M337.622 180.508C335.033 178.251 331.711 177.262 328.247 177.408C323.452 177.614 318.38 180.013 314.579 184.379C310.426 189.129 308.799 195.099 309.737 200.19C310.232 203.1 311.707 205.754 313.918 207.711C314.84 208.504 315.874 209.156 316.987 209.647C319.476 210.732 322.223 211.083 324.905 210.66C329.209 210.046 333.615 207.723 336.977 203.839C343.51 196.338 343.807 185.883 337.622 180.508Z" fill="#FFBA9A"/>
<path d="M320.993 200.823C320.936 200.829 320.879 200.829 320.823 200.823C320.631 200.777 320.465 200.657 320.362 200.489C320.258 200.322 320.224 200.12 320.268 199.928C321.484 194.758 324.137 188.888 333.904 189.462C334.002 189.467 334.098 189.492 334.186 189.535C334.275 189.578 334.353 189.638 334.418 189.712C334.483 189.785 334.533 189.871 334.564 189.964C334.595 190.057 334.608 190.156 334.601 190.253C334.587 190.45 334.496 190.633 334.348 190.764C334.199 190.894 334.006 190.961 333.809 190.95C325.186 190.459 322.858 195.388 321.71 200.276C321.665 200.433 321.571 200.57 321.442 200.669C321.313 200.767 321.155 200.821 320.993 200.823Z" fill="#013D55"/>
<path opacity="0.5" d="M298.228 205.355C302.601 205.355 306.146 201.811 306.146 197.438C306.146 193.066 302.601 189.521 298.228 189.521C293.854 189.521 290.309 193.066 290.309 197.438C290.309 201.811 293.854 205.355 298.228 205.355Z" fill="#FF9498"/>
<path opacity="0.5" d="M260.615 184.909C260.615 187.009 259.781 189.023 258.296 190.508C256.811 191.992 254.797 192.826 252.696 192.826C252.252 192.824 251.809 192.787 251.37 192.716C252.372 189.153 253.587 185.78 254.724 182.819C255.341 181.212 255.911 179.581 256.478 177.946C257.727 178.631 258.77 179.638 259.498 180.863C260.225 182.087 260.611 183.485 260.615 184.909Z" fill="#FF9498"/>
<path d="M239.828 450.698H153.22V463.563H239.828V450.698Z" fill="#013D55"/>
<path d="M177.471 463.562H46.8151L26.0291 344.807H156.684L177.471 463.562Z" fill="white"/>
<path d="M112.242 412.462H94.152L91.2578 395.907H109.348L112.242 412.462ZM95.4031 410.978H110.476L108.1 397.392H93.0236L95.4031 410.978Z" fill="#013D55"/>
<path d="M435.317 463.816C435.317 463.816 411.64 431.166 379.816 430.885C354.647 430.663 307.936 460.97 311.123 463.808C314.31 466.646 331.636 463.808 331.636 463.808C331.636 463.808 327.055 471.238 338.743 468.76C350.43 466.282 356.132 463.808 356.132 463.808C356.132 463.808 345.469 471.59 355.736 470.537C366.002 469.484 379.095 463.808 379.095 463.808L435.317 463.816Z" fill="#FFBA9A"/>
<path d="M331.141 464.806C330.986 464.805 330.836 464.756 330.71 464.666C330.585 464.576 330.491 464.449 330.44 464.302C330.39 464.156 330.387 463.998 330.431 463.85C330.475 463.702 330.564 463.571 330.686 463.476L348.736 449.589C348.893 449.469 349.092 449.417 349.288 449.444C349.484 449.471 349.661 449.574 349.781 449.732C349.901 449.889 349.953 450.088 349.926 450.284C349.9 450.48 349.796 450.657 349.639 450.777L331.592 464.659C331.462 464.756 331.303 464.808 331.141 464.806Z" fill="#BF643A"/>
<path d="M354.647 465.301C354.486 465.3 354.329 465.248 354.2 465.151C354.071 465.054 353.978 464.917 353.933 464.762C353.888 464.608 353.895 464.442 353.952 464.292C354.01 464.141 354.115 464.013 354.251 463.927L367.38 455.745C367.547 455.64 367.75 455.606 367.942 455.65C368.135 455.694 368.302 455.813 368.407 455.98C368.512 456.148 368.546 456.35 368.502 456.543C368.458 456.735 368.339 456.902 368.172 457.007L355.043 465.19C354.924 465.263 354.787 465.302 354.647 465.301Z" fill="#BF643A"/>
<path d="M436.802 462.415C436.699 462.414 436.597 462.393 436.503 462.351C436.409 462.31 436.325 462.249 436.255 462.173C406.49 429.828 380.137 431.605 379.875 431.625C379.775 431.64 379.672 431.634 379.574 431.607C379.475 431.581 379.384 431.534 379.304 431.471C379.224 431.407 379.159 431.328 379.111 431.238C379.063 431.148 379.034 431.05 379.026 430.948C379.018 430.847 379.03 430.745 379.063 430.648C379.096 430.552 379.149 430.463 379.217 430.388C379.286 430.313 379.369 430.252 379.462 430.21C379.554 430.169 379.655 430.146 379.757 430.145C380.026 430.117 407.076 428.292 437.348 461.168C437.445 461.274 437.51 461.406 437.534 461.549C437.557 461.691 437.539 461.837 437.481 461.969C437.423 462.101 437.328 462.214 437.208 462.293C437.087 462.372 436.946 462.414 436.802 462.415Z" fill="#BF643A"/>
</g>
</svg>
